<svg width="480" height="270" viewBox="0 0 480 270" xmlns="http://www.w3.org/2000/svg" xmlns:xlink="http://www.w3.org/1999/xlink"><svg width="480" height="270" viewBox="0 0 480 270" xmlns="http://www.w3.org/2000/svg"><title>photos coming soon 480x270</title><defs><radialGradient cx="21.719%" cy="22.832%" fx="21.719%" fy="22.832%" r="249.144%" gradientTransform="matrix(.49096 .48805 -.27774 .88302 .174 -.08)" id="b"><stop stop-color="#BABABA" offset="0%"/><stop offset="100%"/></radialGradient><path id="a" d="M0 0h480v270H0z"/></defs><g fill="none" fill-rule="evenodd"><use fill="#E3E3E3" xlink:href="#a"/><use fill="url(#b)" style="mix-blend-mode:multiply" xlink:href="#a"/><path d="M259.55 185.836h4.854v-12.672h-4.854v12.672zm7.143 0h4.76v-12.672h-4.76v12.672zm-9.55 2.164h16.713c.632 0 1.144-.484 1.144-1.082 0-.597-.512-1.082-1.144-1.082h-.116v-13.754c0-.598-.512-1.082-1.144-1.082h-14.192c-.632 0-1.144.484-1.144 1.082v13.754h-.116c-.632 0-1.144.485-1.144 1.082 0 .598.512 1.082 1.144 1.082z" fill="#FFF" opacity=".7"/><path d="M279.214 163.846c-.14 0-.275.027-.4.075H253.77l-17.68-22.566h17.293v2.834c0 .61.498 1.104 1.112 1.104h5.687c.614 0 1.112-.494 1.112-1.104v-2.834h1.434l17.68 22.567h-.795a1.116 1.116 0 0 0-.4-.074zm-1.114 30.946h-27.296v-31.06l1.545 1.97c.21.27.534.426.877.426H278.1v28.664zm-29.52 0h-6.323V170.63c0-.61-.498-1.104-1.112-1.104H228.31c-.614 0-1.112.494-1.112 1.104v24.162h-7.634V160.24l14.252-18.192 14.764 18.844v33.9zm-19.16 0h10.613v-23.06h-10.61v23.06zm26.186-51.707h3.462v-6.878h-3.462v6.878zm24.72 51.707v-28.664h2.354c.248-.027.3-.04.348-.055.23-.103.277-.134.323-.168.158-.144.172-.158.185-.173.1-.14.11-.157.12-.176.075-.166.08-.18.085-.193.04-.18.044-.196.046-.213.005-.178.005-.2.003-.22a2.298 2.298 0 0 0-.04-.213 2.463 2.463 0 0 0-.08-.2c-.098-.15-19.52-24.944-19.52-24.944a1.115 1.115 0 0 0-.88-.426h-1.977v-4.043c0-.61-.498-1.104-1.112-1.104h-5.686c-.614 0-1.112.494-1.112 1.104v4.043h-19.564c-.53.133-.55.145-.572.158a1.66 1.66 0 0 0-.218.167c-.082.092-19.5 24.875-19.5 24.875a1.098 1.098 0 0 0 .195 1.55c.203.156.443.23.682.23.33 0 .66-.145.88-.425l2.054-2.624v31.714H191.11c-.614 0-1.112.495-1.112 1.104 0 .61.498 1.104 1.112 1.104h97.776c.614 0 1.112-.494 1.112-1.104 0-.61-.498-1.104-1.112-1.104h-8.562z" fill="#FFF" opacity=".7"/><path d="M210.57 115.543h.01c.4 0 .73-.32.734-.72l.046-4.087a.73.73 0 0 0-.726-.736h-.01c-.4 0-.73.32-.733.72l-.045 4.086a.73.73 0 0 0 .726.737m-4.645.16a.734.734 0 0 0 .936.447.727.727 0 0 0 .45-.93l-1.364-3.854a.736.736 0 0 0-.937-.446.727.727 0 0 0-.45.93l1.365 3.854zm-3.375 2.175a.735.735 0 0 0 1.033.1.725.725 0 0 0 .103-1.024l-2.61-3.16a.738.738 0 0 0-1.035-.1.725.725 0 0 0-.1 1.025l2.61 3.16zm-5.964 1.107l3.542 2.082a.735.735 0 0 0 1.006-.255.726.726 0 0 0-.257-1l-3.542-2.08a.737.737 0 0 0-1.006.255.726.726 0 0 0 .256 1m-1.68 5.144l4.046.755a.733.733 0 0 0 .857-.582.73.73 0 0 0-.587-.85l-4.046-.754a.735.735 0 0 0-.857.58.73.73 0 0 0 .586.85m.074 5.417c.04 0 .08-.003.12-.01l4.062-.664a.73.73 0 1 0-.24-1.438l-4.06.664a.73.73 0 0 0-.606.837c.06.357.37.61.724.61m6.033 2.01a.737.737 0 0 0-1-.28l-3.588 2.004a.726.726 0 0 0-.28.994.735.735 0 0 0 1 .278l3.588-2.003a.726.726 0 0 0 .28-.994m-.775 7.268a.736.736 0 0 0 .558-.255l2.68-3.1a.725.725 0 0 0-.078-1.028.738.738 0 0 0-1.035.078l-2.68 3.1a.725.725 0 0 0 .078 1.028.735.735 0 0 0 .478.176m5.45-2.055l-1.452 3.822a.727.727 0 0 0 .688.986c.296 0 .576-.18.687-.472l1.45-3.824a.727.727 0 0 0-.426-.938.736.736 0 0 0-.946.425m4.632.263c-.4 0-.73.32-.733.72l-.046 4.085a.73.73 0 0 0 .727.737h.008c.402 0 .73-.32.734-.72l.045-4.085a.732.732 0 0 0-.726-.737h-.01m3.72-.607a.727.727 0 0 0-.45.93l1.365 3.853a.734.734 0 0 0 1.385-.484l-1.364-3.854a.736.736 0 0 0-.936-.446m5.786 2.354a.735.735 0 0 0 1.033.102.725.725 0 0 0 .1-1.026l-2.61-3.16a.738.738 0 0 0-1.033-.1.725.725 0 0 0-.102 1.026l2.61 3.158zm4.113-3.833c.25 0 .494-.128.632-.358a.726.726 0 0 0-.258-1l-3.542-2.08a.737.737 0 0 0-1.006.254.726.726 0 0 0 .258 1l3.54 2.08c.12.07.248.103.375.103m1.92-5.057a.73.73 0 0 0 .135-1.445l-4.046-.755a.73.73 0 0 0-.272 1.433l4.045.754a.743.743 0 0 0 .137.013m-4.726-5.35a.733.733 0 0 0 .844.6l4.06-.664a.73.73 0 0 0 .607-.837.734.734 0 0 0-.844-.602l-4.06.664a.73.73 0 0 0-.606.838m-1.247-3.52a.735.735 0 0 0 1 .277l3.588-2.003a.726.726 0 0 0 .28-.992.737.737 0 0 0-1-.278l-3.588 2.003a.726.726 0 0 0-.28.992m-1.907-2.71a.735.735 0 0 0 .558-.255l2.68-3.1a.725.725 0 0 0-.078-1.027.738.738 0 0 0-1.036.078l-2.68 3.1a.725.725 0 0 0 .078 1.028.734.734 0 0 0 .478.176m-3.713-2.078a.736.736 0 0 0 .946-.425l1.45-3.823a.727.727 0 0 0-.427-.94.736.736 0 0 0-.946.426l-1.452 3.823a.727.727 0 0 0 .43.94m-10.855 10.055c0 3.85 3.157 6.984 7.037 6.984s7.037-3.133 7.037-6.984-3.157-6.984-7.037-6.984-7.037 3.133-7.037 6.984z" fill="#ECEEBB"/></g></svg></svg>